<?xml version="1.0" encoding="UTF-8"?>
<svg id="Layer_1" data-name="Layer 1" xmlns="http://www.w3.org/2000/svg" viewBox="0 0 1241 499">
  <defs>
    <style>
      .cls-1 {
        fill: #fff;
        stroke-width: 0px;
      }
    </style>
  </defs>
  <g>
    <path class="cls-1" d="M43.04,478.96c-2.54-1.24-12.4-6.54-15.62-11.78-3.22-5.24-7.3-1.73-6,2.05,0,0,6.83,13.41,18.82,15.26,1.24.19,2.52.1,3.68-.39,3.26-1.38,1.3-4.07-.88-5.14Z"/>
    <path class="cls-1" d="M62.95,409.61c.35-11.31,1.61-21.41,3.78-30.31-2.17,8.9-3.43,19-3.78,30.31-.2,7.71-.1,14.4.4,20.11-.5-5.71-.61-12.41-.4-20.11Z"/>
    <path class="cls-1" d="M94.41,302.92c1.48.87,3.11,1.33,4.89,1.33,4.54,0,7.45.16,9.96.36-2.51-.2-5.42-.36-9.96-.36-1.78,0-3.41-.46-4.88-1.33Z"/>
    <path class="cls-1" d="M211.43,358.59c14.34,12.36,23.45,28.05,23.45,45.71,0,28.59-17.56,47.78-44.1,47.78-24.76,0-34.12-15.11-64.93-15.11-11.44,0-18.88,4.19-25.21,8.53,6.34-4.33,13.77-8.52,25.21-8.52,30.81,0,40.18,15.11,64.93,15.11,26.54,0,44.11-19.2,44.11-47.78,0-17.66-9.11-33.35-23.45-45.71Z"/>
    <path class="cls-1" d="M824.23,229.54c.31-7.39.27-14.63-.12-21.73-6.14,2.7-12.39,5.15-18.74,7.12,0,6.4-.44,12.82-1.36,19.35,4.02-3.3,8.46-5.58,13.61-5.58,2.23,0,4.44.29,6.62.84Z"/>
    <path class="cls-1" d="M127.88,329.97c11.02-.09,22.14,1.25,32.84,3.8-10.7-2.56-21.83-3.89-32.85-3.81-23.3.23-40.19,8.49-50.92,24.75,10.73-16.26,27.62-24.52,50.92-24.75Z"/>
    <path class="cls-1" d="M786.73,287.76c-6.73,13.74-15.42,28.33-26.3,44.19,5.39-1.25,11.25-1.91,17.58-1.97,6.28-.05,12.59.37,18.84,1.2,3.66-6.65,6.97-13.49,9.91-20.53-8.24-4.64-13.97-15.65-20.03-22.88Z"/>
    <path class="cls-1" d="M99.3,240.13c11.23,0,12.51,14.77,22.34,18.11-9.83-3.34-11.11-18.11-22.34-18.11-3.37,0-6.21,1.35-8.48,3.87,2.27-2.52,5.11-3.87,8.48-3.87Z"/>
    <path class="cls-1" d="M131.91,256.94c-1.96,1.24-3.96,1.98-6.07,1.98h0c2.11,0,4.11-.74,6.07-1.98Z"/>
    <path class="cls-1" d="M167.49,228.7c3.14,0,6.26.56,9.27,1.64-3.01-1.08-6.13-1.64-9.27-1.64-10.18,0-17.6,8.87-24.4,17.01,6.81-8.13,14.23-17,24.41-17Z"/>
    <path class="cls-1" d="M247.3,361.49c6.51,14.15,16.86,27.43,30.87,39.58-5.23-22.54-18.09-32.58-30.87-39.58Z"/>
    <path class="cls-1" d="M714.83,389.67c-7.87,7.74-16.37,14.57-25.39,20.6,3.21,3.02,5.26,6.56,5.26,11.18,0,2.32-.68,4.26-1.82,5.99,2.91-1.47,5.79-2.96,8.62-4.51,3.92-2.14,7.74-4.35,11.48-6.62,0-2.15.03-4.38.09-6.71.22-7.13.81-13.76,1.76-19.94Z"/>
    <path class="cls-1" d="M611.21,442.05c-26,5.64-53.25,7.9-80.21,7.9-1.49,0-2.97,0-4.45-.02-16.7,6.89-37.83,10.72-62.16,10.72-43.21,0-76.52-12.07-92.78-31.95-19.3-4.78-34.25-9.25-42.9-11.98-7.53-2.38-15.74-6.01-23.56-11.54.1,5.73.88,11.27,2.3,16.58,3.29,1.92,6.68,3.81,10.19,5.64,45.34,23.72,105.54,38.07,169.51,40.43,37.23,1.37,73.65-1.37,107.85-7.92,6.48-5.45,11.92-11.42,16.21-17.86Z"/>
    <path class="cls-1" d="M94.41,302.92c1.48.87,3.1,1.33,4.88,1.33,4.54,0,7.46.16,9.96.36,4.48.36,7.68.86,16.58.86,13.48,0,20.42,7.35,38.8,7.35s35.93-17.56,35.93-42.87c0-20.57-10.78-34.95-23.81-39.61-3.01-1.08-6.13-1.64-9.27-1.64-10.18,0-17.6,8.87-24.41,17-3.79,4.53-7.39,8.83-11.18,11.23-1.96,1.24-3.96,1.98-6.07,1.98h0c-1.57,0-2.95-.25-4.2-.68-9.83-3.34-11.11-18.11-22.34-18.11-3.37,0-6.21,1.35-8.48,3.87-4.34,4.81-6.63,13.89-6.63,25.95,0,16.71,3.56,29.04,10.22,32.97Z"/>
    <path class="cls-1" d="M780.67,356.21c6.01-7.98,11.39-16.33,16.18-25.03-6.25-.84-12.57-1.25-18.84-1.2-6.33.06-12.19.73-17.58,1.97-9.25,13.48-20.08,27.87-32.65,43.45-4.09,5.07-8.41,9.82-12.95,14.27-.94,6.17-1.53,12.81-1.76,19.94-.06,2.33-.09,4.56-.09,6.71,27.38-16.62,50.11-36.79,67.69-60.11Z"/>
    <path class="cls-1" d="M728.42,54.51c-34.34-20.71-76.42-35.31-125.08-43.42-46.58-7.76-96.68-9.2-148.93-4.27-106.49,10.03-208.99,45.99-281.21,98.66-29.42,21.46-42.48,36.77-38.79,45.5,3.1,7.35,17.41,10.38,39.7,10.38,50.05,0,140.33-15.26,234.22-31.13,83.89-14.18,170.64-28.85,239.67-34.78,37.41-3.21,65.87-3.56,87.01-1.05,24.22,2.87,38.25,9.41,42.9,20,17.1,38.91,27.49,69.4,27.46,100.53,6.36-1.97,12.61-4.42,18.74-7.12-3.54-64.91-36.05-117.33-95.7-153.3Z"/>
    <path class="cls-1" d="M567.69,398.58c0-59.21-66.15-56.76-66.15-83.31,0-18.38,30.63-19.6,30.63-45.74,0-20.01-26.54-33.08-66.56-33.08s-69.42,13.07-69.42,33.08c0,26.14,30.63,27.36,30.63,45.74,0,26.54-66.15,24.09-66.15,83.31,0,10.2,3.15,19.48,8.99,27.58,40.02,10.05,99.94,21.81,161.32,21.82,23.2-10.87,36.73-28.12,36.73-49.4Z"/>
    <path class="cls-1" d="M271.96,347.99c-3.37-20.86-.84-40.07.39-47.29l-32.94,30.68c.8,10.4,3.45,20.46,7.89,30.11,12.78,7,25.64,17.04,30.87,39.58,8.44,7.32,18.22,14.24,29.27,20.69-1.42-5.31-2.2-10.85-2.3-16.58-14.95-10.58-28.49-28.13-33.18-57.19Z"/>
    <path class="cls-1" d="M712.99,418.63c.23,24.49,4.84,36.3,17.65,36.3,15.11,0,21.64-34.3,45.33-34.3,28.99,0,42.47,31.44,64.93,31.44,26.54,0,44.1-19.19,44.1-47.78,0-37.5-41.07-66.1-86.03-72.82-4.93,9.02-10.48,17.68-16.7,25.93-17.94,23.81-41.22,44.36-69.27,61.23Z"/>
    <path class="cls-1" d="M775.96,258.92c-13.88,0-13.88-18.79-26.54-18.79-9.8,0-15.11,11.43-15.11,29.81,0,20.42,5.31,34.3,15.11,34.3,12.66,0,12.66-23.28,26.54-23.28,3.44,0,6.45,2.08,9.33,5.16,8.59-17.7,13.88-33.98,16.37-49.78-9.44,8.95-16.66,22.57-25.7,22.57Z"/>
    <path class="cls-1" d="M786.73,287.76c6.07,7.23,11.79,18.24,20.03,22.88,7.15-17.13,12.17-35.41,14.98-54.72,1.31-8.99,2.13-17.78,2.49-26.39-2.17-.55-4.39-.84-6.62-.84-5.15,0-9.59,2.28-13.61,5.58,0,.05-.01.11-.02.16-2.4,16.92-7.96,34.32-17.26,53.32Z"/>
    <path class="cls-1" d="M757.48,332.71c-22.92,6.44-36.84,24.29-42.1,53.58,3.77-3.83,7.39-7.87,10.84-12.15,11.95-14.82,22.33-28.55,31.26-41.44Z"/>
    <path class="cls-1" d="M464.38,460.65c24.33,0,45.46-3.83,62.16-10.72-58.81-.53-115.82-11.53-154.94-21.23,16.26,19.87,49.57,31.95,92.78,31.95Z"/>
    <path class="cls-1" d="M689.44,410.27c-23.28,15.54-50.02,25.66-78.23,31.78-4.3,6.44-9.73,12.41-16.21,17.86,35.57-6.81,68.73-17.75,97.89-32.47,1.14-1.73,1.82-3.67,1.82-5.99,0-4.62-2.05-8.16-5.26-11.18Z"/>
    <path class="cls-1" d="M808.56,311.53c1.92.82,3.98,1.3,6.2,1.3,18.37,0,35.94-17.56,35.94-42.88,0-20.92-11.16-35.42-24.48-39.83-.37,8.51-1.2,17.21-2.49,26.09-2.84,19.52-7.92,38-15.16,55.32Z"/>
    <path class="cls-1" d="M190.77,452.08c26.54,0,44.1-19.19,44.1-47.78,0-17.66-9.11-33.35-23.45-45.71-13.39-11.55-31.35-20.18-50.7-24.81-10.7-2.56-21.83-3.89-32.84-3.8-23.3.23-40.19,8.49-50.92,24.75-4.48,6.79-7.89,14.98-10.23,24.58-2.17,8.9-3.43,19-3.78,30.31-.21,7.71-.1,14.4.4,20.11,1.49,16.98,6.46,25.21,17.16,25.21,7.81,0,13.34-4.8,20.12-9.44,6.34-4.33,13.77-8.53,25.21-8.53,30.81,0,40.17,15.11,64.93,15.11Z"/>
    <path class="cls-1" d="M1109.6,266.27c0-14.29,19.6-14.29,19.6-26.54,0-9.8-12.25-15.52-30.63-15.52-20.83,0-34.71,5.72-34.71,15.52,0,12.25,23.68,12.25,23.68,26.54s-32.67,21.23-32.67,39.61,17.56,36.75,43.7,36.75,42.06-16.74,42.06-33.89c0-19.19-31.04-28.58-31.04-42.47Z"/>
    <path class="cls-1" d="M244.44,359.96s0,0,0,0c-15.27-7.91-29.56-12.46-29.56-29.99,0-33.89,40.42-28.99,40.42-43.28s-22.46-7.76-22.46-30.63,40.84-30.22,40.84-51.86c0-15.52-9.8-25.73-24.5-25.73-34.3,0-76.37,41.25-122.92,41.25-31.44,0-55.13-41.25-76.36-41.25-14.71,0-24.51,10.21-24.51,25.73,0,31.03,40.02,31.85,40.02,47.37,0,22.87-48.59,13.48-48.59,41.65,0,33.49,55.94,20.83,55.94,42.06S1.29,338.96,1.29,371.22s43.29,28.99,43.29,50.23c0,15.92-31.45,14.7-31.45,41.24,0,20.42,29,34.31,54.32,34.31,49,0,37.57-.41,58.8-.41,16.74,0,24.91-.82,79.22-.82,44.92,0,75.14-28.58,75.14-71.05,0-7.74-.63-14.49-1.76-20.45,0,0,0,0,0,0-16.03-13.46-27.59-28.34-34.41-44.3ZM90.82,244c2.27-2.52,5.11-3.87,8.48-3.87,11.23,0,12.51,14.78,22.34,18.11,1.25.43,2.64.67,4.2.68,2.11,0,4.11-.74,6.07-1.98,3.78-2.4,7.38-6.7,11.18-11.23,6.81-8.13,14.23-17.01,24.4-17.01,3.14,0,6.27.56,9.27,1.64,13.02,4.67,23.81,19.04,23.81,39.61,0,25.32-17.56,42.88-35.94,42.88s-25.32-7.35-38.8-7.35c-8.9,0-12.1-.5-16.58-.86-2.51-.2-5.42-.36-9.96-.36-1.78,0-3.41-.46-4.89-1.33-6.67-3.93-10.23-16.26-10.23-32.97,0-12.06,2.29-21.13,6.63-25.94ZM43.92,484.1c-1.16.49-2.44.58-3.68.39-11.99-1.85-18.82-15.26-18.82-15.26-1.3-3.78,2.78-7.29,6-2.05,3.22,5.24,13.08,10.54,15.62,11.78,2.18,1.07,4.14,3.76.88,5.14ZM190.77,452.08c-24.75,0-34.12-15.11-64.93-15.11-11.44,0-18.87,4.19-25.21,8.52-6.78,4.64-12.3,9.44-20.11,9.44-10.7,0-15.67-8.24-17.16-25.21-.5-5.71-.61-12.4-.4-20.11.35-11.31,1.61-21.41,3.78-30.31,2.34-9.59,5.75-17.78,10.23-24.58,10.73-16.26,27.62-24.53,50.92-24.75,11.02-.08,22.14,1.25,32.85,3.81,19.35,4.62,37.31,13.26,50.7,24.81,14.34,12.36,23.45,28.05,23.45,45.71,0,28.58-17.57,47.78-44.11,47.78Z"/>
    <path class="cls-1" d="M125.84,258.92c-1.57,0-2.95-.25-4.2-.68,1.25.43,2.63.68,4.2.68h0Z"/>
    <path class="cls-1" d="M200.57,269.95c0,25.31-17.56,42.87-35.93,42.87s-25.32-7.35-38.8-7.35c-8.9,0-12.09-.5-16.58-.86,4.48.36,7.68.86,16.58.86,13.48,0,20.42,7.35,38.8,7.35s35.94-17.56,35.94-42.88c0-20.57-10.78-34.94-23.81-39.61,13.03,4.67,23.81,19.04,23.81,39.61Z"/>
    <path class="cls-1" d="M143.09,245.71c-3.79,4.53-7.39,8.83-11.18,11.23,3.78-2.4,7.38-6.7,11.18-11.23Z"/>
    <path class="cls-1" d="M94.41,302.92c-6.67-3.93-10.22-16.26-10.22-32.97,0-12.06,2.29-21.13,6.63-25.95-4.34,4.81-6.63,13.88-6.63,25.94,0,16.71,3.56,29.04,10.23,32.97Z"/>
    <path class="cls-1" d="M63.35,429.72c1.49,16.98,6.46,25.21,17.16,25.21,7.81,0,13.33-4.8,20.11-9.44-6.78,4.64-12.31,9.44-20.12,9.44-10.69,0-15.67-8.23-17.16-25.21Z"/>
    <path class="cls-1" d="M66.73,379.3c2.34-9.59,5.75-17.78,10.23-24.58-4.48,6.79-7.89,14.98-10.23,24.58Z"/>
    <path class="cls-1" d="M160.73,333.78c19.35,4.63,37.31,13.26,50.7,24.81-13.39-11.55-31.35-20.18-50.7-24.81Z"/>
    <path class="cls-1" d="M369.64,426.16c-5.84-8.09-8.99-17.37-8.99-27.58,0-59.21,66.15-56.76,66.15-83.31,0-18.38-30.63-19.6-30.63-45.74,0-20.01,27.77-33.08,69.42-33.08s66.56,13.07,66.56,33.08c0,26.14-30.63,27.36-30.63,45.74,0,26.54,66.15,24.09,66.15,83.31,0,21.27-13.52,38.53-36.73,49.4,27.51,0,55.32-2.35,81.75-8.28,6.6-10.76,10.11-22.78,10.11-35.81,0-57.58-76.77-62.07-76.77-106.99,0-47.78,44.1-58.8,44.1-92.7,0-15.52-9.8-25.73-24.5-25.73-27.77,0-69.01,42.47-99.64,42.47-34.71,0-75.96-42.47-103.73-42.47-14.7,0-24.5,10.21-24.5,25.73,0,33.89,44.1,44.92,44.1,92.7,0,44.65-75.84,49.37-76.75,105.97,6.97,5.07,15.02,9.06,24.16,11.95,8.25,2.61,22.27,6.8,40.34,11.34ZM563,187.77s22.61-1.97,20.07,19.44c-.04.37-.14.74-.3,1.07-2.92,6.08-5.79-1.64-6.77-6.51-1-5-7.04-9.49-10-9-6,1-7-5-3-5Z"/>
    <path class="cls-1" d="M487.07,469.83c-64.26-2.36-124.77-16.8-170.37-40.65-2.89-1.51-5.7-3.06-8.45-4.63,13.84,43.9,72.51,72.04,155.3,72.04,55.59,0,100.39-12.58,128.15-34.03-27.5,5.02-56.37,7.62-85.91,7.62-6.22,0-12.46-.12-18.73-.35Z"/>
    <path class="cls-1" d="M864.99,329.97c0-33.89,40.43-28.99,40.43-43.29s-22.46-7.76-22.46-30.63,40.83-30.22,40.83-51.86c0-15.52-9.8-25.73-24.5-25.73-21.6,0-46.28,16.35-73.22,28.47.44,7.56.48,15.29.14,23.18,13.32,4.41,24.48,18.9,24.48,39.83,0,25.32-17.56,42.88-35.94,42.88-2.22,0-4.28-.47-6.2-1.3-2.86,6.84-6.06,13.48-9.59,19.95,44.96,6.72,86.03,35.32,86.03,72.82,0,28.59-17.56,47.78-44.1,47.78-22.46,0-35.94-31.44-64.93-31.44-23.68,0-30.22,34.3-45.33,34.3-12.8,0-17.41-11.81-17.65-36.3-3.44,2.07-6.95,4.1-10.53,6.05-4.46,2.43-9.02,4.76-13.68,7.01-9.11,7.13-25.53,11.81-25.53,31,0,20.42,28.99,34.3,54.31,34.3,49,0,37.57-53.5,58.8-53.5,16.74,0,24.91,52.27,79.22,52.27,44.92,0,75.14-28.58,75.14-71.05,0-79.22-65.75-57.17-65.75-94.74Z"/>
    <path class="cls-1" d="M757.48,332.71c11.65-16.8,20.82-32.16,27.81-46.57-2.88-3.09-5.9-5.16-9.33-5.16-13.88,0-13.88,23.28-26.54,23.28-9.8,0-15.11-13.89-15.11-34.3,0-18.38,5.31-29.81,15.11-29.81,12.66,0,12.66,18.79,26.54,18.79,9.05,0,16.26-13.61,25.7-22.57.12-.73.24-1.47.34-2.2.89-6.28,1.33-12.46,1.36-18.62-8.81,2.58-17.81,4.18-27,4.18-31.45,0-55.13-41.24-76.36-41.24-14.7,0-24.5,10.21-24.5,25.73,0,31.04,40.02,31.85,40.02,47.37,0,22.87-48.6,13.48-48.6,41.65,0,33.49,55.95,20.83,55.95,42.06s-71.46,3.67-71.46,35.94c0,22.94,24.29,27.78,36.48,37.69,9.84-6.53,19.05-14.04,27.5-22.62,5.26-29.29,19.18-47.14,42.1-53.58Z"/>
    <path class="cls-1" d="M803.99,234.44c0-.05.01-.11.02-.16-.8.65-1.58,1.35-2.34,2.08-2.49,15.8-7.78,32.08-16.37,49.78.48.51.96,1.06,1.43,1.63,9.3-19.01,14.86-36.41,17.26-53.32Z"/>
    <path class="cls-1" d="M689.44,410.27c-.49-.46-1.01-.91-1.55-1.35-22.43,14.88-48.08,24.71-75.17,30.78-.48.79-.99,1.57-1.51,2.35,28.22-6.12,54.95-16.24,78.23-31.78Z"/>
    <path class="cls-1" d="M821.74,255.92c-2.81,19.31-7.83,37.59-14.98,54.72.59.33,1.18.62,1.8.89,7.24-17.32,12.32-35.79,15.16-55.32,1.29-8.88,2.12-17.58,2.49-26.09-.66-.22-1.31-.41-1.98-.58-.36,8.6-1.18,17.4-2.49,26.39Z"/>
    <path class="cls-1" d="M244.44,359.97c.95.49,1.9,1,2.85,1.52-4.44-9.65-7.09-19.71-7.89-30.11l32.94-30.68c-1.23,7.22-3.76,26.43-.39,47.29,4.7,29.06,18.23,46.6,33.18,57.19,0-.43-.02-.86-.02-1.29,0-.35.02-.68.02-1.02-16.76-12.19-27.23-30.64-31.2-55.14-4.21-25.98.87-49.38.92-49.62l.7-3.14-38.22,35.59.03.48c.71,9.97,3.09,19.62,7.05,28.91,0,0,0,0,0,0,0,0,0,0,0,0Z"/>
    <polygon class="cls-1" points="244.44 359.97 244.44 359.96 244.43 359.96 244.44 359.96 244.44 359.97"/>
    <path class="cls-1" d="M760.42,331.95c-1,.23-1.98.49-2.94.76-8.93,12.89-19.31,26.62-31.26,41.44-3.45,4.27-7.07,8.31-10.84,12.15-.2,1.11-.38,2.24-.55,3.38,4.53-4.46,8.86-9.2,12.95-14.27,12.57-15.58,23.39-29.97,32.65-43.45Z"/>
    <path class="cls-1" d="M530.97,447.98c-61.38-.01-121.3-11.77-161.32-21.82.62.86,1.28,1.71,1.96,2.55,39.12,9.69,96.13,20.69,154.94,21.23,1.51-.62,2.99-1.28,4.43-1.95Z"/>
    <path class="cls-1" d="M278.17,401.07c.24,1.04.47,2.1.67,3.19,0,0,0,0,0,0,0,0,0,0,0,0,8.55,7.18,18.36,13.96,29.41,20.28-.29-.92-.57-1.85-.82-2.79-11.05-6.46-20.83-13.37-29.27-20.69Z"/>
    <polygon class="cls-1" points="278.84 404.25 278.85 404.26 278.85 404.27 278.85 404.26 278.84 404.25"/>
    <path class="cls-1" d="M780.67,356.21c-17.57,23.32-40.3,43.49-67.69,60.11,0,.79,0,1.56,0,2.32,28.05-16.87,51.33-37.42,69.27-61.23,6.22-8.26,11.78-16.92,16.7-25.93-.7-.11-1.41-.21-2.12-.3-4.79,8.69-10.17,17.05-16.18,25.03Z"/>
    <path class="cls-1" d="M777.91,114.4c-4.65-10.59-18.68-17.13-42.9-20-21.14-2.51-49.6-2.16-87.01,1.05-69.03,5.93-155.78,20.6-239.67,34.78-93.89,15.87-184.17,31.14-234.22,31.13-22.29,0-36.61-3.03-39.7-10.38-3.68-8.74,9.37-24.05,38.79-45.5C245.42,52.82,347.92,16.86,454.41,6.82c52.25-4.92,102.36-3.49,148.93,4.27,48.66,8.1,90.74,22.71,125.08,43.42,59.64,35.96,92.15,88.39,95.7,153.3.66-.29,1.31-.58,1.96-.87-3.77-65.23-36.59-117.94-96.62-154.14-34.56-20.84-76.88-35.53-125.78-43.68C556.92,1.34,506.64-.11,454.22,4.83c-106.84,10.07-209.7,46.16-282.2,99.03l.59.81-.59-.81c-30.7,22.39-43.61,38.05-39.46,47.9,10.67,25.31,133.67,4.52,276.1-19.56,163.57-27.65,348.96-59,367.42-17,17.1,38.91,27.45,69.32,27.29,100.33.67-.2,1.34-.4,2-.6.03-31.13-10.36-61.62-27.46-100.53Z"/>
    <path class="cls-1" d="M692.88,427.44c-29.16,14.72-62.31,25.66-97.89,32.47-1.07.9-2.16,1.78-3.29,2.65,35.12-6.42,67.97-16.81,97.07-30.86,1.66-1.3,3.07-2.69,4.1-4.26Z"/>
    <path class="cls-1" d="M247.3,361.49c-.95-.52-1.91-1.03-2.85-1.52,6.82,15.97,18.37,30.83,34.4,44.29-.21-1.09-.43-2.15-.67-3.19-14.01-12.15-24.37-25.43-30.87-39.58Z"/>
    <path class="cls-1" d="M244.44,359.97s0,0,0,0c6.82,15.96,18.38,30.84,34.41,44.3,0,0,0,0,0,0-16.03-13.46-27.58-28.32-34.4-44.29Z"/>
    <path class="cls-1" d="M487.15,467.83c-63.97-2.35-124.17-16.71-169.51-40.43-3.51-1.84-6.9-3.72-10.19-5.64.25.94.53,1.87.82,2.79,2.74,1.57,5.55,3.11,8.45,4.63,45.6,23.85,106.11,38.29,170.37,40.65,6.27.23,12.51.35,18.73.35,29.54,0,58.41-2.59,85.91-7.62,1.12-.87,2.22-1.75,3.29-2.65-34.2,6.55-70.62,9.29-107.85,7.92Z"/>
    <path class="cls-1" d="M526.54,449.93c1.48.01,2.97.02,4.45.02,26.96,0,54.22-2.26,80.21-7.9.52-.78,1.02-1.56,1.51-2.35-26.43,5.93-54.24,8.29-81.75,8.28-1.44.67-2.91,1.33-4.43,1.95Z"/>
    <path class="cls-1" d="M305.14,405.18c7.82,5.53,16.03,9.17,23.56,11.54,8.65,2.73,23.6,7.2,42.9,11.98-.68-.84-1.34-1.68-1.96-2.55-18.07-4.54-32.09-8.73-40.34-11.34-9.14-2.89-17.19-6.88-24.16-11.95,0,.34-.02.68-.02,1.02,0,.43.02.86.02,1.29Z"/>
    <path class="cls-1" d="M801.67,236.35c.77-.73,1.55-1.42,2.34-2.08.92-6.53,1.36-12.95,1.36-19.35-.67.21-1.33.41-2,.6-.03,6.16-.47,12.34-1.36,18.62-.1.73-.23,1.47-.34,2.2Z"/>
    <path class="cls-1" d="M786.73,287.76c-.47-.57-.95-1.11-1.43-1.63-6.99,14.42-16.17,29.77-27.81,46.57.97-.27,1.94-.53,2.94-.76,10.89-15.86,19.58-30.45,26.3-44.19Z"/>
    <path class="cls-1" d="M712.99,418.63c0-.76-.01-1.53,0-2.32-3.74,2.27-7.57,4.48-11.48,6.62-2.83,1.54-5.71,3.04-8.62,4.51-1.03,1.57-2.44,2.96-4.1,4.26,4.65-2.25,9.22-4.58,13.68-7.01,3.59-1.96,7.09-3.98,10.53-6.05Z"/>
    <path class="cls-1" d="M714.83,389.67c.17-1.14.35-2.27.55-3.38-8.44,8.59-17.66,16.09-27.5,22.62.54.44,1.06.89,1.55,1.35,9.02-6.02,17.52-12.86,25.39-20.6Z"/>
    <path class="cls-1" d="M796.85,331.18c.71.09,1.41.19,2.12.3,3.53-6.46,6.73-13.11,9.59-19.95-.61-.26-1.21-.56-1.8-.89-2.94,7.04-6.25,13.89-9.91,20.53Z"/>
    <path class="cls-1" d="M824.23,229.54c.66.17,1.32.36,1.98.58.35-7.89.3-15.62-.14-23.18-.65.29-1.31.58-1.96.87.39,7.1.43,14.34.12,21.73Z"/>
  </g>
  <g>
    <path class="cls-1" d="M1108.6,266.27c0-14.29,19.6-14.29,19.6-26.54,0-9.8-12.25-15.52-30.63-15.52-20.83,0-34.71,5.72-34.71,15.52,0,12.25,23.68,12.25,23.68,26.54s-32.67,21.23-32.67,39.61,17.56,36.75,43.7,36.75,42.06-16.74,42.06-33.89c0-19.19-31.04-28.58-31.04-42.47Z"/>
    <path class="cls-1" d="M1175.16,425.94c0-21.23,53.9-21.23,53.9-50.23,0-31.04-71.46-15.52-71.46-35.94s55.95-9.39,55.95-33.89c0-35.53-68.2-26.14-68.2-51.86,0-20.83,59.21-28.18,59.21-50.64,0-7.76-7.35-12.66-18.37-12.66-25.32,0-62.89,16.74-88.61,16.74s-63.3-16.74-88.61-16.74c-11.03,0-18.38,4.9-18.38,12.66,0,21.64,60.03,28.59,60.03,48.6,0,26.95-69.01,17.56-69.01,53.9,0,25.32,55.95,12.66,55.95,33.89s-71.46,3.68-71.46,35.94,55.95,28.99,55.95,50.23c0,26.14-63.7-7.35-63.7,38.39,0,19.19,18.38,31.85,45.74,31.85,29.81,0,49.82-14.7,49.82-36.75,0-28.99-18.38-46.55-18.38-67.38,0-19.19,24.91-32.26,62.48-32.26s61.66,13.07,61.66,32.26c0,20.83-17.97,38.39-17.97,67.38,0,22.05,21.23,36.75,53.09,36.75,27.36,0,45.74-12.66,45.74-31.85,0-45.74-65.34-12.25-65.34-38.39ZM1097.58,342.63c-26.14,0-43.7-17.97-43.7-36.75s32.67-25.73,32.67-39.61-23.68-14.29-23.68-26.54c0-9.8,13.88-15.52,34.71-15.52,18.37,0,30.63,5.72,30.63,15.52,0,12.25-19.6,12.25-19.6,26.54s31.04,23.28,31.04,42.47c0,17.15-16.74,33.89-42.06,33.89ZM1233,473.77c-5,12-19,14-19,14-4,0-6-5,0-6.34,6-1.34,12-8.66,14-10.66s6-3,5,3Z"/>
  </g>
</svg>