<svg width="111" height="111" viewBox="0 0 111 111" fill="none" xmlns="http://www.w3.org/2000/svg">
<path d="M54.5466 2.3261C54.8413 1.39511 56.1587 1.39511 56.4534 2.3261L68.5381 40.5071C68.8327 41.438 69.562 42.1673 70.4929 42.4619L108.674 54.5466C109.605 54.8413 109.605 56.1587 108.674 56.4534L70.4929 68.5381C69.562 68.8327 68.8327 69.562 68.5381 70.4929L56.4534 108.674C56.1587 109.605 54.8413 109.605 54.5466 108.674L42.4619 70.4929C42.1673 69.562 41.438 68.8327 40.507 68.5381L2.3261 56.4534C1.39511 56.1587 1.39511 54.8413 2.3261 54.5466L40.5071 42.4619C41.438 42.1673 42.1673 41.438 42.4619 40.507L54.5466 2.3261Z" stroke="white" stroke-width="2"/>
</svg>
